<?xml version="1.0" encoding="UTF-8"?>
<svg id="Layer_2" data-name="Layer 2" xmlns="http://www.w3.org/2000/svg" viewBox="0 0 237.25 231.82">
  <defs>
    <style>
      .cls-1 {
        fill: #4ec3c7;
        stroke-width: 0px;
      }
    </style>
  </defs>
  <g id="Layer_1-2" data-name="Layer 1">
    <g>
      <path class="cls-1" d="M34.74,34.75C-.4,69.88-8.88,121.57,9.29,164.71c9.72-7.45,19.64-14.65,29.51-21.9,18.77-13.78,37.51-27.6,56.43-41.18,4.3-3.09,5.73-6.53,5.35-11.77-.82-11.48-2.04-23.1-1.05-34.49.7-8.05,3.19-16.87,7.67-23.44,6.77-9.93,20.94-8.85,26.68,1.72,3.62,6.68,5.7,14.84,6.13,22.47.68,11.99-.86,24.1-.87,36.16,0,2.71,1.69,6.39,3.82,7.98,28.42,21.2,57.08,42.05,85.53,63.21,17.47-42.88,8.81-93.91-25.98-128.71-46.33-46.33-121.44-46.33-167.77,0Z"/>
      <path class="cls-1" d="M40.79,176.62c-10.93,3.64-14.35,17.55-6.22,25.71.06.06.12.12.18.18,16.79,16.79,73.82,43.4,72.19,20.28-1.56-22.08-2.7-44.2-4.22-66.96-20.95,7.04-41.48,13.99-61.93,20.8Z"/>
      <path class="cls-1" d="M136.81,155.83c-1.52,22.9-4.45,44.45-4.17,66.07.24,18.07,53.54-3.06,69.86-19.39.1-.1.2-.2.3-.3,8.31-8.37,4.82-22.6-6.37-26.34-19.56-6.54-39.29-13.21-59.62-20.04Z"/>
    </g>
  </g>
</svg>