<?xml version="1.0" encoding="UTF-8"?>
<svg id="Layer_2" data-name="Layer 2" xmlns="http://www.w3.org/2000/svg" viewBox="0 0 132.48 129.45">
  <defs>
    <style>
      .cls-1 {
        fill: #fff;
        stroke-width: 0px;
      }
    </style>
  </defs>
  <g id="Layer_1-2" data-name="Layer 1">
    <g>
      <path class="cls-1" d="M19.4,19.4C-.22,39.02-4.96,67.89,5.18,91.97c5.43-4.16,10.97-8.18,16.48-12.23,10.48-7.7,20.95-15.41,31.51-22.99,2.4-1.72,3.2-3.65,2.99-6.57-.46-6.41-1.14-12.9-.59-19.26.39-4.49,1.78-9.42,4.29-13.09,3.78-5.55,11.69-4.94,14.9.96,2.02,3.73,3.18,8.29,3.42,12.54.38,6.7-.48,13.46-.49,20.19,0,1.51.94,3.57,2.13,4.46,15.87,11.84,31.88,23.48,47.76,35.29,9.76-23.94,4.92-52.44-14.51-71.87-25.87-25.87-67.81-25.87-93.68,0Z"/>
      <path class="cls-1" d="M22.77,98.62c-6.1,2.03-8.01,9.8-3.47,14.36.03.03.07.07.1.1,9.38,9.38,41.22,24.24,40.31,11.32-.87-12.33-1.51-24.68-2.35-37.39-11.7,3.93-23.16,7.81-34.58,11.61Z"/>
      <path class="cls-1" d="M76.4,87.01c-.85,12.79-2.49,24.82-2.33,36.89.13,10.09,29.9-1.71,39.01-10.82.06-.06.11-.11.17-.17,4.64-4.68,2.69-12.62-3.56-14.71-10.92-3.65-21.94-7.38-33.29-11.19Z"/>
    </g>
  </g>
</svg>