<svg xmlns="http://www.w3.org/2000/svg" width="75" height="21" viewBox="0 0 75 21" fill="none">
  <g clip-path="url(#clip0_4_285)">
    <path fill-rule="evenodd" clip-rule="evenodd" d="M33.8249 0.166017C32.3584 0.954573 29.8877 4.85633 29.6258 5.30075C28.9313 6.46307 27.187 8.96549 25.7023 9.83837C24.7528 10.3945 24.4157 9.69707 25.1535 8.60995C25.6158 7.92395 26.2147 7.79405 26.2147 7.48181C26.2147 6.61349 25.4086 6.46079 24.8666 6.79354C24.6548 6.92344 24.5387 6.928 24.163 7.26758C23.8988 6.68414 23.218 6.27619 22.4756 6.27619C22.2297 6.27619 21.9018 6.3947 21.542 6.59526V7.8647C21.6968 7.77581 21.8562 7.69605 22.0179 7.62995C22.8286 7.30405 23.3136 7.19921 22.5325 8.01967C22.2456 8.32279 21.904 8.62818 21.542 8.88572V10.8799C22.0247 10.6566 22.4141 10.4423 22.758 10.3238C23.1975 12.0126 24.393 11.8325 25.4997 11.0941C26.5039 10.4264 27.77 9.40307 28.1594 9.13414C28.1548 11.8166 29.3503 12.2063 31.2472 11.1739C31.6639 11.4611 31.887 11.7687 32.5952 11.7687H32.9801C33.1691 11.7687 33.4879 11.6525 33.8294 11.4998V9.8566C33.752 9.96372 33.6723 10.064 33.5903 10.1574C33.0689 10.7637 32.6135 10.6269 32.8822 9.75632C33.062 9.16832 33.3991 8.59172 33.8294 8.1473V6.54968C32.7091 7.34507 31.2836 9.15693 31.1014 9.96372C29.0748 10.6999 30.1018 8.28405 30.498 7.25391C31.1288 5.6107 32.215 3.74643 33.3421 3.16982C33.4537 3.11285 33.6336 2.9875 33.8294 2.82796V0.166017H33.8249ZM34.3669 9.01107V11.2377C34.1938 11.3289 34.0071 11.42 33.8249 11.5021V9.85888C34.0207 9.59679 34.2029 9.30507 34.3669 9.01107ZM34.3669 6.24428V7.68693C34.2211 7.78265 34.0549 7.92167 33.8887 8.08577C33.8682 8.10856 33.8477 8.12679 33.8249 8.14958V6.55196C34.0162 6.41521 34.2006 6.31038 34.3669 6.24428ZM34.3669 0.0361104V2.33113C34.1938 2.51345 34.0025 2.68666 33.8249 2.83024V0.166017C34.0276 0.0589011 34.2097 0.0110407 34.3669 0.0361104ZM21.5397 6.59754V7.86698C21.1275 8.10856 20.7541 8.42535 20.4649 8.78772C19.8956 9.48739 20.1575 9.66288 20.8634 9.30279C21.0911 9.18883 21.3211 9.04753 21.5397 8.888V10.8822C21.1253 11.0759 20.6448 11.2765 20.0618 11.436C19.0257 11.714 17.2427 12.0149 16.2089 11.5864C14.9884 11.0827 14.7561 9.58083 14.9155 8.11539C15.018 7.18098 15.3299 6.70465 14.3758 7.39749C13.0482 8.35698 10.8371 10.3033 9.40481 11.2172C7.69922 12.3089 5.9777 11.4702 6.52422 9.29139C6.68134 8.66465 6.92955 8.20656 7.15726 7.67098C7.60359 6.61805 7.69695 6.35824 6.63352 7.04879C4.53172 8.41851 3.35443 10.8617 2.19992 12.7624C1.79687 13.4256 1.38926 13.7834 0.633248 13.576C0.309893 13.4872 -0.0020752 13.3504 -0.0020752 13.1043C0.000201948 12.122 5.67712 2.89862 7.64913 0.576249C7.9611 0.20704 8.26851 -0.114308 8.66246 -0.118866H8.68067C8.84463 -0.118866 9.02224 -0.0618894 9.22491 0.0657383C9.65301 0.341505 9.49361 0.902155 9.12927 1.3762C8.49395 2.19894 7.0047 4.60791 6.40581 5.48535C7.33033 5.2301 9.6439 2.97838 9.6439 5.57196C9.6439 6.50182 8.77176 7.77581 8.33682 8.96321C7.95654 9.99562 8.08634 10.105 9.03818 9.55348C10.1335 8.92218 11.5749 7.6687 12.1875 7.19465C12.356 7.06247 12.8524 6.69554 13.4513 6.26707C14.3667 5.61298 16.0062 3.92875 17.1198 4.65577C17.7209 5.05005 17.582 5.54233 17.3657 6.16224C17.2313 6.55424 16.3774 8.50511 16.612 9.59451C16.7896 10.4104 17.4978 10.3352 18.1285 10.3352C18.2105 9.35976 20.1438 7.36786 21.5397 6.59298V6.59754ZM34.3669 2.32885C34.6674 2.01206 34.9043 1.6702 34.9043 1.41267C34.9043 0.491923 34.6993 0.0885289 34.3669 0.0338314V2.32885ZM38.6274 8.006C38.1811 8.84925 37.8076 9.75632 37.8076 10.1255C37.8076 10.7318 38.1811 11.2879 38.6274 11.5499V8.00828V8.006ZM38.6274 1.19615V3.98573C38.1811 4.86545 37.8213 5.69503 37.7416 5.90926C37.252 7.16958 36.9651 8.44358 36.9765 9.71074C36.9833 10.6406 37.9465 12.7784 35.683 11.1944C35.1866 10.8457 35.1639 10.7887 34.6606 11.0759C34.5718 11.126 34.4693 11.1807 34.3691 11.2354V9.00879C34.5058 8.76265 34.6242 8.50967 34.7175 8.27493C35.025 7.49093 34.7745 7.42256 34.3691 7.68465V6.242C34.4966 6.19186 34.6128 6.16452 34.7175 6.16452C35.1957 6.16452 35.4417 6.65907 35.8743 6.95535C36.4892 5.7634 37.4251 2.8348 38.6297 1.19388L38.6274 1.19615ZM38.6274 3.98573C38.8824 3.47978 39.1693 2.95559 39.4472 2.52257V0.339226C39.1625 0.546621 38.8893 0.84062 38.6274 1.19615V3.98573ZM38.6274 11.5477C38.7982 11.6502 38.9803 11.7072 39.1557 11.7072C39.265 11.7072 39.3606 11.7026 39.4449 11.6912V6.67958C39.1898 7.01005 38.8938 7.49777 38.6251 8.006V11.5477H38.6274ZM40.7793 9.7153C40.7133 9.91814 40.6768 10.1324 40.6768 10.3717C40.6768 10.554 40.7133 10.7158 40.7793 10.8639V9.7153ZM40.7793 6.63628V7.9513C40.3808 8.68288 39.7341 9.37344 39.7341 9.92269C39.7341 10.6383 40.5561 11.5636 39.4449 11.689V6.6773C39.8343 6.16907 40.1144 6.20554 40.6404 6.55196C40.6882 6.58158 40.7337 6.60665 40.7793 6.63628ZM40.7793 3.73047V4.62615C40.6768 4.47573 40.6153 4.32531 40.6153 4.22503C40.6153 4.01992 40.6791 3.85126 40.7793 3.73047ZM40.7793 0.106761V2.01206C40.7451 1.95508 40.7155 1.88443 40.6882 1.80922C40.4719 1.21895 39.9732 1.70439 39.4449 2.52485V0.339226C39.7204 0.143226 40.0096 0.0292732 40.3034 0.0292732C40.4696 0.0292732 40.6313 0.0589011 40.7793 0.106761ZM42.1866 4.47573C42.1866 4.79936 41.9042 5.19363 41.6332 5.19363C41.4829 5.19363 41.3349 5.13894 41.2006 5.05233V3.48661C41.6492 3.40685 42.1866 3.7168 42.1866 4.47345V4.47573ZM41.2006 2.31973V0.327831C41.5216 0.564853 41.7357 0.91355 41.7858 1.25997C41.8564 1.7568 41.5399 2.29922 41.2006 2.31745V2.31973ZM41.2006 3.48661C41.0867 3.50713 40.9751 3.55727 40.8795 3.63247V4.76061C40.9706 4.87001 41.0799 4.97029 41.2006 5.05233V3.48661ZM41.2006 0.327831C41.1026 0.25718 40.9956 0.193366 40.8795 0.143226V2.1602C40.982 2.27871 41.0935 2.32429 41.2006 2.31745V0.327831ZM41.2006 8.88572C41.0799 9.06804 40.9728 9.25493 40.8795 9.45321V11.0463C40.966 11.1693 41.0753 11.2787 41.2006 11.3699V8.88572ZM40.8818 7.75074C41.0047 7.48865 41.0867 7.222 41.0867 6.95307C41.0867 6.84823 41.0047 6.77758 40.8818 6.7001V7.75074ZM40.7793 2.00978V0.106761C40.8134 0.118157 40.8476 0.131831 40.8795 0.145506V2.16248C40.8453 2.12145 40.8089 2.07132 40.7793 2.01206V2.00978ZM40.7793 4.62843V3.73275C40.8089 3.69629 40.8431 3.66438 40.8795 3.63475V4.76289C40.8431 4.71959 40.8089 4.67401 40.7793 4.6307V4.62843ZM40.7793 7.9513V6.63628L40.8795 6.69782V7.74847C40.8499 7.81684 40.8157 7.88065 40.7793 7.94902V7.9513ZM40.7793 10.8639V9.7153C40.8066 9.62414 40.8431 9.53981 40.8795 9.45321V11.0463C40.8431 10.9893 40.8066 10.9278 40.7793 10.8639ZM46.7204 9.63097C46.6543 9.83609 46.6179 10.0093 46.6179 10.1255C46.6179 10.317 46.6543 10.4993 46.7204 10.6748V9.63097ZM46.7204 5.92977V7.44535C45.8733 9.07716 43.48 11.7095 42.3596 11.7095C41.9315 11.7095 41.5148 11.591 41.2028 11.3653V8.88116C41.5376 8.37065 41.9406 7.88977 42.1069 7.2653C42.2321 6.79354 42.1114 6.78214 42.5486 6.53144L43.2933 6.34C44.4979 6.17591 43.9559 7.81456 43.6667 8.2567L43.1156 9.24809C42.8765 9.67427 42.9061 9.63097 43.2637 9.33697C43.9946 8.73986 44.9761 7.67781 45.2653 6.6454C45.3837 6.22605 45.4953 5.7634 46.0964 5.7634C46.3446 5.7634 46.561 5.8181 46.7249 5.92521L46.7204 5.92977ZM46.7204 7.44763C46.7568 7.37698 46.7909 7.30861 46.8228 7.24251V6.01182C46.7909 5.97991 46.7568 5.95484 46.7204 5.93205V7.44763ZM46.7204 10.6725C46.7477 10.75 46.7818 10.8252 46.8228 10.8959V9.34153C46.7818 9.44409 46.7477 9.53981 46.7204 9.62869V10.6725ZM46.923 9.084V11.0599C46.8866 11.0075 46.8524 10.9528 46.8206 10.8959V9.34153C46.8502 9.25721 46.8843 9.17288 46.923 9.084ZM46.923 6.13945V6.99409C46.8934 7.07386 46.8615 7.15591 46.8206 7.24251V6.01182C46.8615 6.05056 46.8911 6.09159 46.923 6.13945ZM46.923 6.99409C46.9891 6.81633 47.0255 6.66135 47.0255 6.536C47.0255 6.38103 46.9868 6.24656 46.923 6.13945V6.99409ZM49.6602 9.89762C49.5668 10.2326 49.5463 10.5517 49.6237 10.8206C49.6351 10.8594 49.6465 10.8959 49.6602 10.9323V9.89534V9.89762ZM49.6602 6.68186V7.81456C49.2753 8.59628 48.5466 9.33925 48.5466 9.92497C48.5466 10.6953 49.4962 11.7072 47.9682 11.7072C47.5948 11.7072 47.1917 11.4474 46.923 11.0622V9.08628C47.2623 8.27265 47.8179 7.25163 48.2574 6.67958C48.6468 6.17135 48.9269 6.20782 49.4529 6.55424C49.5304 6.6021 49.5987 6.64312 49.6602 6.68186ZM49.6602 3.65754V4.72415C49.5167 4.54182 49.4256 4.35038 49.4256 4.22503C49.4256 3.97205 49.5212 3.78289 49.6602 3.65526V3.65754ZM49.6602 4.72643C49.6875 4.76061 49.7148 4.7948 49.7444 4.82443V3.59373C49.7148 3.61424 49.6875 3.63703 49.6602 3.65982V4.72643ZM49.6602 7.81456C49.692 7.75302 49.7194 7.69149 49.7444 7.62995V6.73884C49.7216 6.72061 49.692 6.70237 49.6602 6.68186V7.81456ZM49.6602 10.9346C49.6852 10.9939 49.7148 11.0463 49.7444 11.101V9.64465C49.7148 9.72897 49.6852 9.81558 49.6602 9.8999V10.9369V10.9346ZM49.8218 9.45548V11.199C49.7945 11.1671 49.7672 11.1352 49.7444 11.0987V9.64237C49.7672 9.58083 49.7922 9.51702 49.8218 9.45321V9.45548ZM49.8218 6.7981V7.418C49.8013 7.48865 49.7763 7.55702 49.7444 7.62768V6.73656C49.774 6.75707 49.7991 6.7753 49.8218 6.7981ZM49.8218 3.55043V4.89963C49.7945 4.87684 49.7695 4.8495 49.7444 4.82443V3.59373C49.7695 3.58006 49.7945 3.5641 49.8218 3.55271V3.55043ZM75.0002 10.7956C74.9478 10.6224 74.7816 10.4651 74.4719 10.3626C73.4563 10.0412 72.402 9.45548 72.1105 9.33469C70.9173 8.83558 70.2911 8.37977 69.3461 7.5707C67.053 5.61298 65.4408 8.01056 62.608 9.53981C61.8839 9.93181 61.5468 10.0344 61.7768 9.02702C61.9431 8.30456 62.2869 8.10628 62.2892 7.29265C62.296 6.57475 61.5514 6.08247 61.0026 6.53144C60.2739 7.13312 58.4704 9.07944 56.9561 10.0594C56.4939 10.3603 56.0635 10.636 55.7629 9.95004C55.5784 9.52614 55.5056 9.15465 55.7629 8.6373C55.9382 8.27721 56.3823 7.94674 56.3823 7.52056C56.3823 7.30861 55.8244 6.72517 55.4236 6.72289C55.0502 6.72289 54.8315 7.09893 54.5947 7.2334C54.0619 6.86191 53.9344 6.438 53.0576 6.43117C52.9187 6.43117 52.7616 6.46307 52.5954 6.52917V8.35925C52.6273 8.33191 52.6592 8.30684 52.6888 8.28177C54.3533 6.95079 53.734 8.58488 52.5954 9.46004V11.2992C52.8595 11.1739 53.1055 11.0052 53.3992 10.8001C53.8 10.5198 53.9252 10.2235 54.2418 10.7044C54.3647 10.889 54.4877 11.1215 54.6129 11.3129C55.4783 12.6849 58.4385 10.2304 59.634 9.30507C60.1031 8.94497 59.9642 9.14325 59.962 9.65376C59.9574 10.5084 60.3764 11.0668 60.9753 11.436C61.6721 11.8622 62.2027 11.5773 62.8539 11.2582C64.1974 10.6019 65.7004 9.2686 66.7866 8.77176C67.7225 8.34786 67.9274 8.47093 68.7449 9.04753C70.0634 9.97055 71.5799 10.9984 73.1352 11.5522C74.1121 11.8986 74.8818 11.4884 75.0025 11.0417V10.7979L75.0002 10.7956ZM49.8218 4.89963V3.55043C50.2886 3.3248 50.9968 3.60513 50.9968 4.47345C50.9968 4.79708 50.7145 5.19135 50.4435 5.19135C50.2181 5.19135 49.9994 5.06373 49.8218 4.89736V4.89963ZM49.8218 7.418C49.8696 7.2653 49.897 7.11033 49.897 6.95307C49.897 6.89382 49.8696 6.84368 49.8218 6.7981V7.418ZM49.8218 11.199V9.45548C50.3524 8.23618 51.6435 6.89837 52.5931 6.52689V8.35698C52.2811 8.63046 51.9988 8.97232 51.7733 9.25265C51.2359 9.91358 51.4841 10.0799 52.1491 9.74037C52.3039 9.66288 52.4497 9.56488 52.5931 9.45776V11.297C52.1946 11.4861 51.762 11.5819 51.0788 11.5773C50.423 11.5727 50.0404 11.4451 49.8218 11.1967V11.199ZM16.0199 18.8179V16.3633H16.6848V15.9691H16.0199V15.8277C16.0199 15.3674 16.1952 14.9731 16.7372 14.9731C16.9376 14.9731 17.0719 15.0027 17.1608 15.0506V18.8202H17.6731V14.7634C17.4613 14.6449 17.1494 14.5743 16.8192 14.5743C16.4252 14.5743 16.1315 14.6745 15.9061 14.8637C15.6419 15.0984 15.5053 15.4517 15.5053 15.846V15.9691H15.1045V16.3633H15.5053V18.8179H16.0176H16.0199ZM18.1559 15.9691L19.2102 18.5945C19.233 18.6583 19.2466 18.7016 19.2466 18.729C19.2466 18.7563 19.2284 18.7996 19.2056 18.8521C19.0872 19.1164 18.9119 19.317 18.7707 19.4287C18.6181 19.5586 18.4473 19.6406 18.3175 19.6816L18.4473 20.1169C18.5771 20.0942 18.8299 20.0053 19.0827 19.7819C19.4356 19.4765 19.6884 18.9751 20.0596 17.9974L20.8361 15.9668H20.2896L19.7248 17.6396C19.6542 17.8447 19.595 18.0635 19.5426 18.2344H19.5313C19.4834 18.0635 19.4129 17.8402 19.3491 17.651L18.7252 15.9668H18.1604L18.1559 15.9691ZM21.8198 18.8179V15.9668H21.3029V18.8179H21.8198ZM21.5625 14.8432C21.3735 14.8432 21.2391 14.9845 21.2391 15.1668C21.2391 15.3423 21.3689 15.4859 21.5511 15.4859C21.756 15.4859 21.8858 15.3446 21.8813 15.1668C21.8813 14.9845 21.7583 14.8432 21.5625 14.8432ZM22.6806 18.8179H23.1975V17.104C23.1975 17.0151 23.2089 16.9285 23.2339 16.8624C23.3227 16.573 23.5869 16.3314 23.9284 16.3314C24.4157 16.3314 24.5865 16.7143 24.5865 17.1724V18.8156H25.1034V17.1131C25.1034 16.1354 24.4909 15.9007 24.0969 15.9007C23.6256 15.9007 23.2977 16.1651 23.1565 16.4363H23.1451L23.1155 15.9645H22.6555C22.6737 16.1992 22.6783 16.4408 22.6783 16.7348V18.8133L22.6806 18.8179ZM28.3757 16.7508C28.3757 16.4044 28.3871 16.1742 28.3985 15.9668H27.9453L27.9225 16.3975H27.9112C27.7882 16.1628 27.5172 15.903 27.0231 15.903C26.3695 15.903 25.741 16.4499 25.741 17.4163C25.741 18.2048 26.2466 18.8065 26.9525 18.8065C27.3942 18.8065 27.6994 18.5945 27.8588 18.3302H27.8702V18.6492C27.8702 19.3671 27.4808 19.6452 26.9525 19.6452C26.5995 19.6452 26.3058 19.5403 26.1168 19.4218L25.987 19.8161C26.217 19.9688 26.5927 20.0509 26.9343 20.0509C27.294 20.0509 27.6925 19.9688 27.9704 19.709C28.2459 19.4606 28.3757 19.0617 28.3757 18.4077V16.753V16.7508ZM27.8633 17.6054C27.8633 17.6943 27.8519 17.7946 27.8223 17.8812C27.7108 18.2117 27.4216 18.4122 27.105 18.4122C26.5471 18.4122 26.2648 17.9473 26.2648 17.3866C26.2648 16.728 26.6177 16.3086 27.1119 16.3086C27.4876 16.3086 27.7404 16.5571 27.836 16.8556C27.8588 16.9263 27.8656 17.0037 27.8656 17.0904V17.6031L27.8633 17.6054ZM30.482 18.8179H30.9876V17.0995C30.9876 17.0106 30.999 16.9217 31.0286 16.8465C31.1105 16.5867 31.3474 16.3291 31.6707 16.3291C32.0647 16.3291 32.2651 16.6596 32.2651 17.1131V18.8202H32.7706V17.0584C32.7706 16.965 32.7888 16.8693 32.8116 16.7986C32.9004 16.5457 33.1304 16.3269 33.4241 16.3269C33.8408 16.3269 34.0412 16.6573 34.0412 17.2043V18.8179H34.5468V17.1405C34.5468 16.1514 33.9888 15.903 33.6108 15.903C33.3399 15.903 33.1509 15.9736 32.9823 16.1035C32.8639 16.1924 32.7524 16.3155 32.6636 16.475H32.6522C32.5292 16.14 32.2354 15.903 31.8461 15.903C31.3747 15.903 31.1105 16.1559 30.9511 16.4271H30.9329L30.9102 15.9668H30.457C30.4752 16.2015 30.4798 16.4431 30.4798 16.7371V18.8156L30.482 18.8179ZM37.3886 17.0698C37.3886 16.4978 37.1769 15.903 36.307 15.903C35.9472 15.903 35.6079 16.0032 35.3711 16.1559L35.4895 16.4978C35.6899 16.3679 35.9654 16.2858 36.2318 16.2858C36.8148 16.2858 36.8785 16.7097 36.8785 16.9445V17.0037C35.7787 16.9969 35.1661 17.3752 35.1661 18.0635C35.1661 18.476 35.4599 18.8817 36.036 18.8817C36.4413 18.8817 36.7487 18.6811 36.9059 18.4578H36.9241L36.9651 18.8179H37.4364C37.4 18.6242 37.3886 18.3826 37.3886 18.1342V17.0676V17.0698ZM36.8899 17.8584C36.8899 17.9108 36.8785 17.9701 36.8603 18.0225C36.7783 18.2641 36.5415 18.4988 36.1726 18.4988C35.9085 18.4988 35.6853 18.3393 35.6853 18.0043C35.6853 17.4504 36.3275 17.3502 36.8922 17.3616V17.8561L36.8899 17.8584ZM40.1667 14.6381V16.3405H40.1554C40.0256 16.1104 39.7318 15.9052 39.2969 15.9052C38.6023 15.9052 38.0148 16.4887 38.0194 17.4368C38.0194 18.3028 38.55 18.8863 39.2377 18.8863C39.7022 18.8863 40.0506 18.6447 40.2077 18.3279H40.2191L40.2419 18.8224H40.7064C40.6882 18.6287 40.6837 18.3393 40.6837 18.0863V14.6404H40.1667V14.6381ZM40.1667 17.6237C40.1667 17.7057 40.1599 17.7764 40.144 17.847C40.0506 18.2367 39.7318 18.4646 39.3857 18.4646C38.8278 18.4646 38.5454 17.9883 38.5454 17.4117C38.5454 16.7827 38.8642 16.3109 39.3993 16.3109C39.7887 16.3109 40.0711 16.5821 40.1462 16.9126C40.1645 16.9764 40.169 17.0653 40.169 17.1314V17.6259L40.1667 17.6237ZM43.8329 17.4869C43.8398 17.4345 43.8512 17.3524 43.8512 17.2453C43.8512 16.7211 43.6029 15.903 42.6739 15.903C41.845 15.903 41.3372 16.5798 41.3372 17.439C41.3372 18.2983 41.8609 18.8817 42.7376 18.8817C43.1908 18.8817 43.5028 18.7814 43.6849 18.6994L43.5961 18.3279C43.4026 18.4099 43.1794 18.476 42.8082 18.476C42.2913 18.476 41.8427 18.1866 41.8313 17.4869H43.8329ZM41.8382 17.1177C41.8792 16.7576 42.1091 16.2767 42.6329 16.2767C43.2158 16.2767 43.357 16.7895 43.3502 17.1177H41.8382ZM45.5385 18.6834C45.7389 18.8019 46.0258 18.884 46.3378 18.884C47.0141 18.884 47.4035 18.5239 47.4035 18.0248C47.4035 17.6009 47.1507 17.3524 46.6566 17.1656C46.2854 17.0243 46.1146 16.9171 46.1146 16.6824C46.1146 16.4704 46.2854 16.2927 46.5906 16.2927C46.8547 16.2927 47.0619 16.3861 47.1735 16.4568L47.3033 16.0807C47.1439 15.9873 46.8911 15.903 46.6042 15.903C45.9917 15.903 45.6228 16.279 45.6228 16.7394C45.6228 17.0812 45.8642 17.3638 46.3765 17.5462C46.7591 17.6875 46.9071 17.8219 46.9071 18.0703C46.9071 18.3051 46.7295 18.4943 46.3537 18.4943C46.0941 18.4943 45.8232 18.3871 45.6706 18.2891L45.5408 18.6834H45.5385ZM48.5853 18.8179V15.9668H48.0684V18.8179H48.5853ZM48.328 14.8432C48.139 14.8432 48.0047 14.9845 48.0047 15.1668C48.0047 15.3423 48.1345 15.4859 48.3166 15.4859C48.5216 15.4859 48.6514 15.3446 48.6468 15.1668C48.6468 14.9845 48.5239 14.8432 48.328 14.8432ZM49.4461 18.8179H49.9516V17.0995C49.9516 17.0106 49.963 16.9217 49.9926 16.8465C50.0746 16.5867 50.3114 16.3291 50.6348 16.3291C51.0287 16.3291 51.2291 16.6596 51.2291 17.1131V18.8202H51.7346V17.0584C51.7346 16.965 51.7528 16.8693 51.7756 16.7986C51.8644 16.5457 52.0944 16.3269 52.3882 16.3269C52.8049 16.3269 53.0053 16.6573 53.0053 17.2043V18.8179H53.5108V17.1405C53.5108 16.1514 52.9529 15.903 52.5749 15.903C52.3039 15.903 52.1149 15.9736 51.9464 16.1035C51.828 16.1924 51.7164 16.3155 51.6276 16.475H51.6162C51.4933 16.14 51.1995 15.903 50.8101 15.903C50.3387 15.903 50.0746 16.1559 49.9152 16.4271H49.897L49.8742 15.9668H49.4211C49.4393 16.2015 49.4438 16.4431 49.4438 16.7371V18.8156L49.4461 18.8179ZM54.3511 19.9848H54.8634V18.435H54.8748C55.0456 18.7176 55.3758 18.8817 55.7515 18.8817C56.4233 18.8817 57.0449 18.3757 57.0449 17.3502C57.0449 16.4841 56.528 15.9007 55.838 15.9007C55.3735 15.9007 55.0388 16.1058 54.827 16.4545H54.8156L54.7928 15.9668H54.3283C54.3397 16.238 54.3511 16.532 54.3511 16.8966V19.9825V19.9848ZM54.8634 17.1701C54.8634 17.0995 54.8816 17.022 54.8976 16.9582C54.9978 16.5684 55.328 16.3155 55.6809 16.3155C56.2274 16.3155 56.528 16.8032 56.528 17.3752C56.528 18.0293 56.2092 18.476 55.6627 18.476C55.2915 18.476 54.9796 18.2276 54.8862 17.8698C54.8748 17.806 54.8634 17.7353 54.8634 17.6578V17.1701ZM57.7007 18.8179H58.2177V14.6358H57.7007V18.8179ZM61.3783 17.4869C61.3852 17.4345 61.3966 17.3524 61.3966 17.2453C61.3966 16.7211 61.1483 15.903 60.2193 15.903C59.3904 15.903 58.8826 16.5798 58.8826 17.439C58.8826 18.2983 59.4063 18.8817 60.283 18.8817C60.7362 18.8817 61.0482 18.7814 61.2303 18.6994L61.1415 18.3279C60.948 18.4099 60.7248 18.476 60.3536 18.476C59.8367 18.476 59.3881 18.1866 59.3767 17.4869H61.3783ZM59.3836 17.1177C59.4245 16.7576 59.6545 16.2767 60.1783 16.2767C60.7612 16.2767 60.9024 16.7895 60.8956 17.1177H59.3836Z" fill="#B1284F"/>
  </g>
  <defs>
    <clipPath id="clip0_4_285">
      <rect width="75" height="20" fill="white" transform="translate(0 0.5)"/>
    </clipPath>
  </defs>
</svg>